:SAMPLES-PER-SECOND 30
:FULLY-SPECIFIED
:DEGREES
17
root  78.2191 40.4216 -4.5525 -31.1008 -89.4134 30.2723
RightUpLeg  -0.468151 -8.98934 -6.98318
RightLeg  3.24491 -5.34584 3.63933
RightFoot  -0.779758 0.0161472 -0.244446
RightToes  1.16414e-010 0 -3.6325e-017
Spine  4.29513 -0.471462 0.317517
Spine1  -0.365281 -0.385358 -0.499797
HEad  -5.69364 0.749662 0.143541
LeftShoulder1  1.01205 -1.57929 -12.7592
LeftArm  -16.0249 4.57203 1.54765
LeftForeArm  9.47993 0.189881 -2.64654
LeftHand  -0.244104 0.0205437 5.32207
RightShoulder  0.482349 -0.217384 7.08109
RightArm  -17.6613 0.959146 0.710758
RightForeArm  6.05815 0.687704 3.66113
RightHand  -1.09613 3.57218 -14.3849
LeftUpLeg  -0.44636 5.93947 5.05761
LeftLeg  2.49542 6.39524 -3.70083
LeftFoot  -1.61401 0.168048 -1.89135
LeftToes  -6.73059e-011 1.31891e-010 -1.28765e-011
18
root  78.1922 40.4244 -4.5519 -32.0879 -89.3854 31.3378
RightUpLeg  -0.513724 -9.02839 -7.01836
RightLeg  3.2651 -5.32432 3.66078
RightFoot  -0.797691 0.016052 -0.250396
RightToes  1.16414e-010 0 -3.6325e-017
Spine  4.33798 -0.533826 0.390919
Spine1  -0.466253 -0.427049 -0.612281
HEad  -5.27326 0.860565 0.101204
LeftShoulder1  1.04103 -1.68919 -12.9134
LeftArm  -15.8334 4.86876 1.62289
LeftForeArm  9.87145 -0.124261 -2.70131
LeftHand  -0.244104 0.0205437 5.32207
RightShoulder  0.492053 -0.214992 7.4029
RightArm  -18.0116 0.819863 0.760841
RightForeArm  6.1507 0.993977 3.56499
RightHand  -1.1121 3.59746 -14.5493
LeftUpLeg  -0.451972 5.90535 5.01844
LeftLeg  2.4099 6.43354 -3.70026
LeftFoot  -1.58407 0.171209 -1.94051
LeftToes  -6.73059e-011 1.31891e-010 -1.28765e-011
19
root  78.1578 40.4287 -4.55039 -38.2596 -89.4354 37.5351
RightUpLeg  -0.480044 -9.04651 -7.0511
RightLeg  3.23292 -5.22224 3.67487
RightFoot  -0.80578 0.0158237 -0.255158
RightToes  1.16414e-010 0 -3.6325e-017
Spine  4.44608 -0.687195 0.610093
Spine1  -0.550241 -0.510531 -1.00382
HEad  -4.93659 1.10929 0.157247
LeftShoulder1  1.03674 -1.6378 -13.0401
LeftArm  -15.9525 5.46722 1.56431
LeftForeArm  10.7035 -0.977631 -2.6324
LeftHand  -0.244104 0.0205437 5.32207
RightShoulder  0.486642 -0.338383 7.86418
RightArm  -18.8557 0.936371 1.51262
RightForeArm  5.36186 1.44431 3.43236
RightHand  -1.19765 3.78572 -15.3291
LeftUpLeg  -0.3703 5.89225 4.99413
LeftLeg  2.33032 6.53435 -3.70506
LeftFoot  -1.58345 0.170078 -1.92292
LeftToes  -6.73059e-011 1.31891e-010 -1.28765e-011
20
root  78.1245 40.431 -4.54744 -56.7847 -89.5483 56.0735
RightUpLeg  -0.469487 -9.05249 -7.08111
RightLeg  3.22254 -5.01708 3.67907
RightFoot  -0.833006 0.0144088 -0.244499
RightToes  1.16414e-010 0 -3.6325e-017
Spine  4.52026 -0.829371 0.832521
Spine1  -0.573274 -0.580392 -1.41014
HEad  -4.80644 1.44701 0.200978
LeftShoulder1  1.01684 -1.46677 -13.3583
LeftArm  -16.8146 6.36506 1.05206
LeftForeArm  12.8197 -2.84872 -2.32074
LeftHand  -0.244104 0.0205437 5.32207
RightShoulder  0.516304 -0.274106 8.54461
RightArm  -19.6657 0.707302 2.84805
RightForeArm  2.36064 2.60722 3.5405
RightHand  -1.32643 3.88295 -16.757
LeftUpLeg  -0.264712 5.89986 4.98092
LeftLeg  2.26725 6.6922 -3.72654
LeftFoot  -1.63312 0.16858 -1.89963
LeftToes  -6.73059e-011 1.31891e-010 -1.28765e-011
21
root  78.0989 40.4294 -4.54336 -93.3498 -89.5957 92.6939
RightUpLeg  -0.570991 -9.0422 -7.09295
RightLeg  3.28292 -4.75026 3.6627
RightFoot  -0.900671 0.00938628 -0.182943
RightToes  1.16414e-010 0 -3.6325e-017
Spine  4.55344 -0.857653 0.893402
Spine1  -0.576099 -0.594489 -1.49118
HEad  -4.6154 1.59183 -0.0468038
LeftShoulder1  1.06724 -1.50623 -14.2765
LeftArm  -18.0363 7.86973 0.0319354
LeftForeArm  16.4118 -6.42718 -2.04348
LeftHand  -0.244104 0.0205437 5.32207
RightShoulder  0.626767 0.179791 9.68775
RightArm  -19.943 -0.38764 4.30263
RightForeArm  -1.71864 5.15804 4.04332
RightHand  -1.48638 4.13865 -18.2342
LeftUpLeg  -0.212927 5.89045 4.9585
LeftLeg  2.21275 6.95623 -3.73117
LeftFoot  -1.68683 0.173134 -1.97043
LeftToes  -6.73059e-011 1.31891e-010 -1.28765e-011
22
root  78.0748 40.4257 -4.54209 -133.73 -89.4562 133.121
RightUpLeg  -0.682016 -8.98357 -7.05116
RightLeg  3.35413 -4.453 3.62412
RightFoot  -0.995463 0.00217597 -0.0946679
RightToes  1.16414e-010 0 -3.6325e-017
Spine  4.57924 -0.751353 0.845308
Spine1  -0.431553 -0.537649 -1.21035
HEad  -4.28478 1.4377 -0.696142
LeftShoulder1  1.27919 -2.03002 -16.2453
LeftArm  -19.0978 10.1546 -1.19007
LeftForeArm  20.2605 -11.7879 -2.12979
LeftHand  -0.244104 0.0205437 5.32207
RightShoulder  0.824424 0.924136 11.4743
RightArm  -19.3609 -2.3224 5.67473
RightForeArm  -4.7123 9.32147 4.79967
RightHand  -1.63578 4.57089 -19.1787
LeftUpLeg  -0.165547 5.89817 4.97187
LeftLeg  2.20451 7.30617 -3.71038
LeftFoot  -1.75949 0.178663 -2.05641
LeftToes  -6.73059e-011 1.31891e-010 -1.28765e-011
23
root  78.0423 40.421 -4.54429 -157.335 -89.1768 156.692
RightUpLeg  -0.671484 -8.88718 -6.95574
RightLeg  3.40054 -4.14102 3.59111
RightFoot  -1.12084 -0.0031581 -0.0449017
RightToes  1.16414e-010 0 -3.6325e-017
Spine  4.54062 -0.597856 0.896197
Spine1  0.0729586 -0.45315 -0.815145
HEad  -4.14575 1.30661 -1.56562
LeftShoulder1  1.67226 -2.91661 -19.4327
LeftArm  -20.3007 12.8089 -2.37111
LeftForeArm  22.9623 -18.0096 -2.70109
LeftHand  -0.244104 0.0205437 5.32207
RightShoulder  1.10834 1.83864 13.8317
RightArm  -17.0344 -4.7091 7.24577
RightForeArm  -6.74421 14.6533 5.29066
RightHand  -1.68586 4.64406 -19.6097
LeftUpLeg  -0.0442467 6.01513 5.09688
LeftLeg  2.2918 7.54453 -3.7306
LeftFoot  -1.94328 0.179443 -2.06854
LeftToes  -6.73059e-011 1.31891e-010 -1.28765e-011
